<?xml version="1.0" standalone="no"?>
<!DOCTYPE svg PUBLIC "-//W3C//DTD SVG 20010904//EN"
 "http://www.w3.org/TR/2001/REC-SVG-20010904/DTD/svg10.dtd">
<svg version="1.0" xmlns="http://www.w3.org/2000/svg"
 width="500.000000pt" height="500.000000pt" viewBox="0 0 500.000000 500.000000"
 preserveAspectRatio="xMidYMid meet">

<g transform="translate(0.000000,500.000000) scale(0.100000,-0.100000)"
fill="#000000" stroke="none">
<path d="M1220 3059 c-30 -5 -87 -24 -126 -43 -171 -81 -264 -255 -251 -471 7
-105 31 -183 82 -260 169 -254 614 -257 787 -4 54 78 79 157 85 269 12 215
-80 385 -251 466 -104 49 -206 62 -326 43z m154 -274 c83 -18 130 -92 130
-205 1 -62 -3 -83 -24 -120 -74 -132 -246 -132 -320 0 -50 91 -24 248 50 300
29 21 95 40 120 35 8 -2 28 -6 44 -10z"/>
<path d="M2425 3038 c-3 -7 -4 -218 -3 -468 l3 -455 135 0 135 0 3 141 3 141
82 6 c148 11 232 51 303 145 39 51 59 134 50 214 -7 75 -25 116 -72 167 -87
97 -173 121 -447 121 -141 0 -189 -3 -192 -12z m400 -251 c21 -17 27 -32 27
-62 0 -56 -36 -85 -103 -85 l-49 0 0 85 0 85 49 0 c38 0 57 -6 76 -23z"/>
<path d="M3737 2973 c-4 -3 -7 -199 -7 -435 l0 -428 125 0 125 0 0 435 0 435
-118 0 c-65 0 -122 -3 -125 -7z"/>
<path d="M4295 2621 c-40 -17 -60 -51 -60 -101 0 -57 21 -85 75 -101 111 -34
197 88 122 172 -21 24 -38 32 -72 35 -25 2 -54 0 -65 -5z"/>
<path d="M4295 1871 c-40 -17 -60 -51 -60 -101 0 -57 21 -85 75 -101 111 -34
197 88 122 172 -21 24 -38 32 -72 35 -25 2 -54 0 -65 -5z"/>
</g>
</svg>
