<?xml version="1.0" encoding="UTF-8"?>
<svg version="1.1" xmlns="http://www.w3.org/2000/svg" width="500" height="500">
<path d="M0 0 C5.25560725 3.84769915 9.10802462 8.03159147 12.66015625 13.46875 C13.74296875 15.0465625 13.74296875 15.0465625 14.84765625 16.65625 C21.38520543 28.80132045 21.18584265 44.16976894 18.09765625 57.28125 C14.5670369 69.00883176 8.04302951 78.13121742 -2.33984375 84.7421875 C-15.79541213 91.95827861 -30.67137536 92.88363153 -45.33984375 89.46875 C-57.01817086 85.60076905 -67.65918014 77.72109119 -73.4296875 66.6796875 C-79.31272136 52.38871255 -80.76861411 37.1404699 -75.33984375 22.46875 C-75.06140625 21.69144531 -74.78296875 20.91414063 -74.49609375 20.11328125 C-70.18361702 9.31350117 -62.56318522 1.34392611 -52.15234375 -3.71875 C-34.91402487 -10.82212623 -15.87341647 -10.38794534 0 0 Z M-42.08984375 25.59375 C-46.15258232 30.78502707 -47.91836512 36.83401336 -47.62890625 43.42578125 C-46.76513741 49.53052592 -44.82334851 55.11334537 -40.33984375 59.46875 C-35.27614819 62.96511122 -30.29785962 63.29152362 -24.33984375 62.46875 C-18.83172349 60.77803355 -16.13846004 57.30613921 -13.28515625 52.46875 C-10.09710099 45.72377359 -10.47962625 38.08273722 -12.90234375 31.15625 C-15.04960323 26.39786314 -17.4586098 23.46393118 -22.33984375 21.46875 C-30.12928331 19.47755886 -35.65714067 20.62302489 -42.08984375 25.59375 Z " fill="#FE1515" transform="translate(161.33984375,200.53125)"/>
<path d="M0 0 C0.85796677 -0.00570007 1.71593353 -0.01140015 2.59989929 -0.01727295 C4.42669435 -0.02674716 6.25350668 -0.03326648 8.08032227 -0.03710938 C10.83707165 -0.04670224 13.59303886 -0.07765325 16.34960938 -0.109375 C30.76060493 -0.19728635 44.77540061 0.53711921 55.64453125 11.2421875 C61.97283138 18.73553033 64.16579134 26.74326938 63.86328125 36.46484375 C63.12299949 43.47751286 61.04871477 49.71825891 56.57421875 55.203125 C55.91421875 55.203125 55.25421875 55.203125 54.57421875 55.203125 C54.57421875 55.863125 54.57421875 56.523125 54.57421875 57.203125 C44.13345062 66.01977364 32.68283231 66.89577181 19.57421875 67.203125 C19.58469238 68.01056152 19.59516602 68.81799805 19.60595703 69.64990234 C19.64741706 73.29261182 19.67351313 76.93527175 19.69921875 80.578125 C19.71597656 81.84914063 19.73273438 83.12015625 19.75 84.4296875 C19.75644531 85.64140625 19.76289063 86.853125 19.76953125 88.1015625 C19.78000488 89.22224121 19.79047852 90.34291992 19.80126953 91.49755859 C19.57421875 94.203125 19.57421875 94.203125 17.57421875 96.203125 C14.97631836 96.44604492 14.97631836 96.44604492 11.7265625 96.43359375 C10.56447266 96.43166016 9.40238281 96.42972656 8.20507812 96.42773438 C6.98626953 96.41548828 5.76746094 96.40324219 4.51171875 96.390625 C2.67770508 96.3896582 2.67770508 96.3896582 0.80664062 96.38867188 C-8.28567069 96.34323556 -8.28567069 96.34323556 -9.42578125 95.203125 C-9.52636368 92.28654871 -9.56193336 89.39361554 -9.55517578 86.4765625 C-9.5569281 85.56118713 -9.55868042 84.64581177 -9.56048584 83.70269775 C-9.56490586 80.66115451 -9.56196584 77.61966889 -9.55859375 74.578125 C-9.55926675 72.4744465 -9.56023673 70.37076808 -9.56149292 68.26708984 C-9.5629701 63.85188051 -9.5608147 59.43669137 -9.55615234 55.02148438 C-9.55045505 49.34819939 -9.55373395 43.67496171 -9.55972481 38.00167847 C-9.56332989 33.65583944 -9.56219208 29.31001172 -9.55959702 24.96417236 C-9.5589276 22.8716837 -9.55975668 20.77919403 -9.56207657 18.68670654 C-9.56460223 15.76767234 -9.56076373 12.84871588 -9.55517578 9.9296875 C-9.55720001 9.0558844 -9.55922424 8.1820813 -9.56130981 7.28179932 C-9.53188577 -0.97059379 -7.51238341 0.03836676 0 0 Z M19.57421875 26.203125 C19.57421875 31.153125 19.57421875 36.103125 19.57421875 41.203125 C26.41310603 41.9339964 26.41310603 41.9339964 32.26171875 39.140625 C33.96956297 35.31830698 33.68565235 33.20428596 32.57421875 29.203125 C31.40684191 27.41581162 31.40684191 27.41581162 29.57421875 26.203125 C27.061322 25.84098932 27.061322 25.84098932 24.38671875 26.015625 C22.79859375 26.0775 21.21046875 26.139375 19.57421875 26.203125 Z " fill="#FE1515" transform="translate(251.42578125,193.796875)"/>
<path d="M0 0 C1.12019531 -0.00128906 2.24039062 -0.00257813 3.39453125 -0.00390625 C4.57402344 -0.00003906 5.75351562 0.00382813 6.96875 0.0078125 C8.73798828 0.00201172 8.73798828 0.00201172 10.54296875 -0.00390625 C12.22326172 -0.00197266 12.22326172 -0.00197266 13.9375 0 C14.97326172 0.00112793 16.00902344 0.00225586 17.07617188 0.00341797 C19.46875 0.1328125 19.46875 0.1328125 20.46875 1.1328125 C20.56921803 3.83581549 20.60491452 6.51329596 20.59814453 9.21679688 C20.59989685 10.06389725 20.60164917 10.91099762 20.60345459 11.7837677 C20.60787409 14.59805316 20.60493477 17.41227634 20.6015625 20.2265625 C20.60223551 22.17329928 20.60320551 24.12003597 20.60446167 26.06677246 C20.60593878 30.15243325 20.60378368 34.23807221 20.59912109 38.32373047 C20.5934238 43.57327766 20.59670274 48.82277372 20.60269356 54.07231903 C20.60629883 58.09389637 20.60516074 62.11546149 20.60256577 66.13703918 C20.6018964 68.07322699 20.60272525 70.00941589 20.60504532 71.94560242 C20.60757129 74.64670774 20.60373205 77.34772909 20.59814453 80.04882812 C20.60016876 80.85717606 20.60219299 81.66552399 20.60427856 82.49836731 C20.58301248 88.01855002 20.58301248 88.01855002 19.46875 89.1328125 C17.71189326 89.23230327 15.95107667 89.2636151 14.19140625 89.265625 C13.12083984 89.26691406 12.05027344 89.26820313 10.94726562 89.26953125 C9.81998047 89.26566406 8.69269531 89.26179688 7.53125 89.2578125 C6.40783203 89.26167969 5.28441406 89.26554687 4.12695312 89.26953125 C3.05509766 89.26824219 1.98324219 89.26695312 0.87890625 89.265625 C-0.60403931 89.26393311 -0.60403931 89.26393311 -2.11694336 89.26220703 C-4.53125 89.1328125 -4.53125 89.1328125 -6.53125 88.1328125 C-6.55437255 76.8066962 -6.57216464 65.48058547 -6.58306217 54.15445042 C-6.58829119 48.89584586 -6.59538918 43.6372574 -6.60668945 38.37866211 C-6.61751766 33.30828123 -6.62352669 28.23791588 -6.62612724 23.16752434 C-6.62798161 21.22854302 -6.63160245 19.28956259 -6.63698006 17.35058784 C-6.6441896 14.6445949 -6.64524098 11.93866694 -6.64477539 9.23266602 C-6.64837067 8.42274704 -6.65196594 7.61282806 -6.65567017 6.77836609 C-6.64347355 0.271268 -6.41915048 0.00699036 0 0 Z " fill="#FE1616" transform="translate(378.53125,200.8671875)"/>
<path d="M0 0 C2.97361086 2.21563162 4.36959793 3.73919585 6 7 C6.37766377 12.00404498 6.11200434 14.99885156 3 19 C0.11592879 21.99088866 -2.8585807 22.69884441 -6.9765625 23.05859375 C-10.32268836 22.96169821 -12.29014162 21.9092184 -15 20 C-17.46024465 17.35050576 -18.85108766 15.43107279 -19.23046875 11.78515625 C-19.03955173 7.53548478 -18.28603068 5.37879739 -15.6875 1.9375 C-11.08507167 -1.26856051 -5.31716945 -0.95321805 0 0 Z " fill="#FE1313" transform="translate(441,237)"/>
<path d="M0 0 C3.85956254 1.51982773 5.29926037 3.17333583 7 7 C7.53751218 11.22330997 7.28625223 13.42749554 5.375 17.25 C2.69318176 20.35526323 0.88980521 21.70339826 -3 23 C-7.77889166 22.83231959 -11.21111832 21.94690797 -15 19 C-17.75199394 15.88107353 -18.22806081 13.53801787 -18 9.5 C-17.48142531 6.36236125 -16.84941166 4.74555764 -15.1875 1.9375 C-10.35517079 -0.99979815 -5.52218665 -0.72160623 0 0 Z " fill="#FE1313" transform="translate(440,312)"/>
</svg>
